<svg xmlns="http://www.w3.org/2000/svg" width="250" height="200" viewBox="0 0 250 200">
<g>
<path d="M 106.06 167.06 C105.00,166.39 104.91,165.81 105.72,164.83 C107.14,163.11 141.56,94.18 142.42,91.34 C142.78,90.15 143.74,88.63 144.54,87.97 C146.84,86.06 146.40,89.27 143.61,94.79 C140.17,101.58 136.23,113.80 135.00,121.52 C132.67,136.11 138.14,149.13 150.61,158.65 C154.23,161.41 167.06,166.00 171.18,166.00 C172.73,166.00 174.00,166.45 174.00,167.00 C174.00,168.28 108.09,168.34 106.06,167.06 ZM 212.62 166.77 C206.75,165.21 202.23,159.77 194.50,144.96 C183.24,123.40 174.48,106.72 164.42,87.70 C159.24,77.91 155.00,69.48 155.00,68.96 C155.00,67.10 172.49,33.00 173.31,33.27 C174.16,33.55 176.39,37.62 190.93,65.50 C195.52,74.30 201.19,85.10 203.52,89.50 C205.85,93.90 210.35,102.45 213.53,108.50 C216.70,114.55 220.74,122.20 222.51,125.50 C224.28,128.80 228.82,137.55 232.61,144.94 C237.08,153.66 240.99,159.86 243.75,162.60 C246.09,164.92 248.00,167.09 248.00,167.41 C248.00,168.42 216.71,167.85 212.62,166.77 ZM 73.03 158.75 C67.36,147.93 59.63,133.23 55.00,124.50 C44.16,104.08 33.88,84.40 20.76,59.00 C10.04,38.24 9.42,37.30 5.18,35.26 C1.50,33.50 1.52,33.50 19.99,33.23 C31.74,33.05 39.44,33.35 41.12,34.05 C45.28,35.77 48.45,39.76 53.79,50.00 C68.51,78.21 82.91,105.72 87.81,115.00 C90.86,120.78 93.95,126.62 94.67,128.00 C95.40,129.38 95.99,131.04 95.99,131.70 C96.00,133.50 79.06,167.00 78.14,167.00 C77.70,167.00 75.40,163.29 73.03,158.75 ZM 105.00 113.03 C105.00,112.49 106.29,109.23 107.87,105.78 C109.45,102.32 112.15,95.26 113.87,90.08 C116.48,82.22 117.00,79.10 117.00,71.31 C117.00,62.87 116.69,61.33 113.88,55.55 C108.08,43.66 98.10,36.24 86.56,35.26 C70.82,33.91 80.48,33.06 111.82,33.03 C138.81,33.01 146.07,33.27 145.80,34.25 C145.00,37.18 106.43,113.94 105.75,113.97 C105.34,113.99 105.00,113.56 105.00,113.03 Z" fill="rgba(247,49,100,1)"/>
</g>
</svg>